<svg id="visual" viewBox="0 0 960 540" width="960" height="540" xmlns="http://www.w3.org/2000/svg" xmlns:xlink="http://www.w3.org/1999/xlink" version="1.1">
    <path fill="#05d9e8" fill-opacity="0.5" d="M0 437L10 439C20 441 40 445 60 447.5C80 450 100 451 120 453C140 455 160 458 180 455.5C200 453 220 445 240 437.3C260 429.7 280 422.3 300 422.8C320 423.3 340 431.7 360 439.2C380 446.7 400 453.3 420 456.8C440 460.3 460 460.7 480 455C500 449.3 520 437.7 540 431.3C560 425 580 424 600 422.5C620 421 640 419 660 421.8C680 424.7 700 432.3 720 429.5C740 426.7 760 413.3 780 412.2C800 411 820 422 840 429.5C860 437 880 441 900 444.8C920 448.7 940 452.3 950 454.2L960 456L960 541L950 541C940 541 920 541 900 541C880 541 860 541 840 541C820 541 800 541 780 541C760 541 740 541 720 541C700 541 680 541 660 541C640 541 620 541 600 541C580 541 560 541 540 541C520 541 500 541 480 541C460 541 440 541 420 541C400 541 380 541 360 541C340 541 320 541 300 541C280 541 260 541 240 541C220 541 200 541 180 541C160 541 140 541 120 541C100 541 80 541 60 541C40 541 20 541 10 541L0 541Z"></path>
    <path fill="#ade1ff" fill-opacity="0.5" d="M0 435L10 435C20 435 40 435 60 439.8C80 444.7 100 454.3 120 455C140 455.7 160 447.3 180 446.7C200 446 220 453 240 455.2C260 457.3 280 454.7 300 451.7C320 448.7 340 445.3 360 443C380 440.7 400 439.3 420 444.2C440 449 460 460 480 462C500 464 520 457 540 451.7C560 446.3 580 442.7 600 442.3C620 442 640 445 660 446.2C680 447.3 700 446.7 720 444.8C740 443 760 440 780 444C800 448 820 459 840 462.7C860 466.3 880 462.7 900 462.8C920 463 940 467 950 469L960 471L960 541L950 541C940 541 920 541 900 541C880 541 860 541 840 541C820 541 800 541 780 541C760 541 740 541 720 541C700 541 680 541 660 541C640 541 620 541 600 541C580 541 560 541 540 541C520 541 500 541 480 541C460 541 440 541 420 541C400 541 380 541 360 541C340 541 320 541 300 541C280 541 260 541 240 541C220 541 200 541 180 541C160 541 140 541 120 541C100 541 80 541 60 541C40 541 20 541 10 541L0 541Z"></path>
    <path fill="#eff0f6" fill-opacity="1" d="M0 493L10 493.3C20 493.7 40 494.3 60 493.7C80 493 100 491 120 486.8C140 482.7 160 476.3 180 474.7C200 473 220 476 240 479.7C260 483.3 280 487.7 300 486C320 484.3 340 476.7 360 474.3C380 472 400 475 420 477.7C440 480.3 460 482.7 480 485.3C500 488 520 491 540 491.8C560 492.7 580 491.3 600 492C620 492.7 640 495.3 660 492.3C680 489.3 700 480.7 720 478.7C740 476.7 760 481.3 780 485C800 488.7 820 491.3 840 490.7C860 490 880 486 900 483C920 480 940 478 950 477L960 476L960 541L950 541C940 541 920 541 900 541C880 541 860 541 840 541C820 541 800 541 780 541C760 541 740 541 720 541C700 541 680 541 660 541C640 541 620 541 600 541C580 541 560 541 540 541C520 541 500 541 480 541C460 541 440 541 420 541C400 541 380 541 360 541C340 541 320 541 300 541C280 541 260 541 240 541C220 541 200 541 180 541C160 541 140 541 120 541C100 541 80 541 60 541C40 541 20 541 10 541L0 541Z"></path>
</svg>